<svg width="57" height="32" viewBox="0 0 57 32" fill="none" xmlns="http://www.w3.org/2000/svg">
<path d="M20.1632 21V9.56H24.2592C26.9632 9.56 28.6752 10.664 28.6752 13.032V13.096C28.6752 14.824 27.6672 15.736 26.3232 16.136L29.3472 21H26.5952L23.8592 16.584H22.7392V21H20.1632ZM22.7392 14.824H24.1952C25.4912 14.824 26.1472 14.28 26.1472 13.176V13.112C26.1472 11.944 25.4432 11.544 24.1952 11.544H22.7392V14.824Z" fill="#F1F2F3"/>
<path d="M10.9476 21V9.56H18.4036V11.576H13.5236V14.248H17.4276V16.136H13.5236V18.984H18.6596V21H10.9476Z" fill="#F1F2F3"/>
<path d="M1.23206 21V9.56H5.18406C7.96806 9.56 9.55206 10.792 9.55206 13.208V13.272C9.55206 15.688 7.87206 16.84 5.26406 16.84H3.80806V21H1.23206ZM3.80806 15.032H5.12006C6.38406 15.032 7.05606 14.424 7.05606 13.288V13.224C7.05606 12.008 6.35206 11.528 5.12006 11.528H3.80806V15.032Z" fill="#F1F2F3"/>
<path d="M51.619 21.128C49.971 21.128 48.883 20.12 48.435 19.096V21H47.587V8.632H48.435V14.584C48.915 13.496 50.147 12.504 51.619 12.504C53.731 12.504 55.379 14.12 55.379 16.728V16.856C55.379 19.48 53.779 21.128 51.619 21.128ZM51.555 20.408C53.315 20.408 54.499 19.128 54.499 16.888V16.76C54.499 14.456 53.139 13.224 51.539 13.224C49.907 13.224 48.419 14.456 48.419 16.76V16.888C48.419 19.176 49.811 20.408 51.555 20.408Z" fill="#F1F2F3"/>
<path d="M41.6423 21.128C39.9943 21.128 38.8103 20.328 38.8103 18.744C38.8103 16.808 40.6663 16.216 42.7303 16.216H44.4743V15.464C44.4743 13.896 43.8343 13.224 42.3623 13.224C41.0983 13.224 40.2023 13.768 40.0103 15H39.1783C39.3703 13.24 40.8103 12.504 42.3943 12.504C44.1383 12.504 45.3223 13.336 45.3223 15.464V21H44.4743V19.72C43.9463 20.536 43.0503 21.128 41.6423 21.128ZM41.7063 20.44C43.2423 20.44 44.4743 19.544 44.4743 18.296V16.872H42.7623C41.0183 16.872 39.6583 17.24 39.6583 18.744C39.6583 19.816 40.3303 20.44 41.7063 20.44Z" fill="#F1F2F3"/>
<path d="M31.472 21V9.56H32.368V20.264H37.92V21H31.472Z" fill="#F1F2F3"/>
</svg>
